<?xml version="1.0" encoding="UTF-8"?>
<!-- Settings Symbolic Icon - COSMIC Style -->
<!-- 16x16 symbolic icon using currentColor for theme adaptation -->
<svg xmlns="http://www.w3.org/2000/svg" viewBox="0 0 16 16" width="16" height="16">
  <!-- Gear outer shape -->
  <path d="M 8 2 L 9 2 L 9.5 3.5 L 11 4 L 12.5 3 L 13 3.5 L 12 5 L 12.5 6.5 L 14 7 L 14 8 L 14 9 L 12.5 9.5 L 12 11 L 13 12.5 L 12.5 13 L 11 12 L 9.5 12.5 L 9 14 L 8 14 L 7 14 L 6.5 12.5 L 5 12 L 3.5 13 L 3 12.5 L 4 11 L 3.5 9.5 L 2 9 L 2 8 L 2 7 L 3.5 6.5 L 4 5 L 3 3.5 L 3.5 3 L 5 4 L 6.5 3.5 L 7 2 Z"
        fill="none"
        stroke="currentColor"
        stroke-width="1"
        stroke-linejoin="round"/>
  <!-- Center circle -->
  <circle cx="8" cy="8" r="2"
          fill="none"
          stroke="currentColor"
          stroke-width="1"/>
</svg>
